<?xml version="1.0" encoding="UTF-8" standalone="no"?>
<svg width="800" height="500" viewBox="0 0 800 500" xmlns="http://www.w3.org/2000/svg">
  <defs>
    <linearGradient id="headerGradient" x1="0%" y1="0%" x2="100%" y2="0%">
      <stop offset="0%" stop-color="#3a7bd5"/>
      <stop offset="100%" stop-color="#3a6073"/>
    </linearGradient>
    <linearGradient id="orbGradient" x1="0%" y1="0%" x2="100%" y2="100%">
      <stop offset="0%" stop-color="#00c6ff"/>
      <stop offset="100%" stop-color="#0072ff"/>
    </linearGradient>
    <filter id="dropShadow" x="-20%" y="-20%" width="140%" height="140%">
      <feGaussianBlur in="SourceAlpha" stdDeviation="3"/>
      <feOffset dx="2" dy="2" result="offsetblur"/>
      <feComponentTransfer>
        <feFuncA type="linear" slope="0.2"/>
      </feComponentTransfer>
      <feMerge>
        <feMergeNode/>
        <feMergeNode in="SourceGraphic"/>
      </feMerge>
    </filter>
  </defs>
  
  <!-- Dashboard Background -->
  <rect width="800" height="500" rx="5" ry="5" fill="#f5f7fa"/>
  
  <!-- Header -->
  <rect width="800" height="60" fill="url(#headerGradient)"/>
  <text x="30" y="38" font-family="Arial" font-size="22" font-weight="bold" fill="white">Smart Orb Dashboard</text>
  
  <!-- Left Sidebar -->
  <rect x="0" y="60" width="180" height="440" fill="#2c3e50"/>
  <rect x="10" y="80" width="160" height="40" rx="5" ry="5" fill="#34495e"/>
  <text x="25" y="105" font-family="Arial" font-size="14" fill="white">Exercise Enhancement</text>
  
  <rect x="10" y="130" width="160" height="40" rx="5" ry="5" fill="#34495e" opacity="0.6"/>
  <text x="25" y="155" font-family="Arial" font-size="14" fill="white">Pain Management</text>
  
  <rect x="10" y="180" width="160" height="40" rx="5" ry="5" fill="#34495e" opacity="0.6"/>
  <text x="25" y="205" font-family="Arial" font-size="14" fill="white">Sleep Enhancement</text>
  
  <rect x="10" y="230" width="160" height="40" rx="5" ry="5" fill="#34495e" opacity="0.6"/>
  <text x="25" y="255" font-family="Arial" font-size="14" fill="white">Stress Reduction</text>
  
  <rect x="10" y="280" width="160" height="40" rx="5" ry="5" fill="#34495e" opacity="0.6"/>
  <text x="25" y="305" font-family="Arial" font-size="14" fill="white">User Profiles</text>
  
  <rect x="10" y="330" width="160" height="40" rx="5" ry="5" fill="#34495e" opacity="0.6"/>
  <text x="25" y="355" font-family="Arial" font-size="14" fill="white">Device Settings</text>
  
  <!-- Main Content Area -->
  <rect x="180" y="60" width="620" height="440" fill="#ecf0f1"/>
  
  <!-- Smart Orb Visualization -->
  <circle cx="300" cy="170" r="80" fill="url(#orbGradient)" filter="url(#dropShadow)">
    <animate attributeName="r" values="80;83;80" dur="2s" repeatCount="indefinite"/>
  </circle>
  <circle cx="300" cy="170" r="65" fill="#ffffff" opacity="0.15"/>
  <circle cx="300" cy="170" r="50" fill="#ffffff" opacity="0.2"/>
  
  <!-- Pulse Animation -->
  <circle cx="300" cy="170" r="90" fill="transparent" stroke="#00c6ff" stroke-width="2" opacity="0">
    <animate attributeName="r" values="80;120" dur="2s" repeatCount="indefinite"/>
    <animate attributeName="opacity" values="0.6;0" dur="2s" repeatCount="indefinite"/>
  </circle>
  
  <!-- Exercise Intensity Display -->
  <rect x="430" y="90" width="320" height="160" rx="5" ry="5" fill="white" filter="url(#dropShadow)"/>
  <text x="450" y="120" font-family="Arial" font-size="18" font-weight="bold" fill="#333">Exercise Intensity</text>
  
  <!-- Exercise Graph -->
  <polyline points="450,200 470,190 490,195 510,180 530,170 550,165 570,150 590,140 610,145 630,130 650,120 670,125 690,115" 
    fill="none" stroke="#3498db" stroke-width="3"/>
  
  <!-- X Axis -->
  <line x1="450" y1="200" x2="700" y2="200" stroke="#333" stroke-width="1"/>
  <text x="450" y="220" font-family="Arial" font-size="10" fill="#333">Time (minutes)</text>
  
  <!-- Y Axis -->
  <line x1="450" y1="120" x2="450" y2="200" stroke="#333" stroke-width="1"/>
  <text x="430" y="160" font-family="Arial" font-size="10" fill="#333" transform="rotate(270, 430, 160)">Intensity</text>
  
  <!-- Bio Signals Panel -->
  <rect x="200" y="280" width="280" height="200" rx="5" ry="5" fill="white" filter="url(#dropShadow)"/>
  <text x="220" y="310" font-family="Arial" font-size="18" font-weight="bold" fill="#333">Bio Signals</text>
  
  <!-- Heart Rate -->
  <text x="220" y="340" font-family="Arial" font-size="14" fill="#333">Heart Rate:</text>
  <text x="320" y="340" font-family="Arial" font-size="14" font-weight="bold" fill="#e74c3c">72 BPM</text>
  
  <!-- EMG -->
  <text x="220" y="370" font-family="Arial" font-size="14" fill="#333">EMG Activity:</text>
  <text x="320" y="370" font-family="Arial" font-size="14" font-weight="bold" fill="#3498db">Medium</text>
  
  <!-- GSR -->
  <text x="220" y="400" font-family="Arial" font-size="14" fill="#333">Stress Level:</text>
  <text x="320" y="400" font-family="Arial" font-size="14" font-weight="bold" fill="#2ecc71">Low</text>
  
  <!-- Body Composition -->
  <text x="220" y="430" font-family="Arial" font-size="14" fill="#333">Imp. Analysis:</text>
  <text x="320" y="430" font-family="Arial" font-size="14" font-weight="bold" fill="#9b59b6">Normal</text>
  
  <!-- TENS Parameters Panel -->
  <rect x="500" y="280" width="280" height="200" rx="5" ry="5" fill="white" filter="url(#dropShadow)"/>
  <text x="520" y="310" font-family="Arial" font-size="18" font-weight="bold" fill="#333">TENS Parameters</text>
  
  <!-- Frequency -->
  <text x="520" y="340" font-family="Arial" font-size="14" fill="#333">Frequency:</text>
  <text x="620" y="340" font-family="Arial" font-size="14" font-weight="bold" fill="#333">100 Hz</text>
  
  <!-- Pulse Width -->
  <text x="520" y="370" font-family="Arial" font-size="14" fill="#333">Pulse Width:</text>
  <text x="620" y="370" font-family="Arial" font-size="14" font-weight="bold" fill="#333">200 μs</text>
  
  <!-- Intensity -->
  <text x="520" y="400" font-family="Arial" font-size="14" fill="#333">Intensity:</text>
  <text x="620" y="400" font-family="Arial" font-size="14" font-weight="bold" fill="#333">40%</text>
  
  <!-- Pattern -->
  <text x="520" y="430" font-family="Arial" font-size="14" fill="#333">Pattern:</text>
  <text x="620" y="430" font-family="Arial" font-size="14" font-weight="bold" fill="#333">Modulated</text>
  
  <!-- Status Indicator -->
  <rect x="600" y="20" width="180" height="30" rx="15" ry="15" fill="#2ecc71"/>
  <text x="620" y="40" font-family="Arial" font-size="14" fill="white">Status: Connected</text>
  
  <!-- Footer -->
  <rect x="0" y="485" width="800" height="15" fill="#2c3e50"/>
</svg>
